<svg xmlns="http://www.w3.org/2000/svg" width="760" height="528" viewBox="0 0 760 528" role="img" font-family="-apple-system, BlinkMacSystemFont, 'Segoe UI', Roboto, Helvetica, Arial, sans-serif">
  <title>Where every case ended, by method</title>
  <rect x="0.5" y="0.5" width="759" height="527" rx="14" fill="#ffffff" stroke="#dbe3ea"/>
  <text x="32.0" y="46.0" font-size="23" font-weight="700" fill="#112d4e" text-anchor="start">Where every case ended</text>
  <text x="32.0" y="72.0" font-size="14" font-weight="400" fill="#5c7084" text-anchor="start">Each bar covers all of a method's cases: right, wrong, or sent to a person.</text>
  <rect x="32.0" y="95.0" width="13.0" height="13.0" rx="3" fill="#1f7a4d"/>
  <text x="52.0" y="106.0" font-size="13" font-weight="400" fill="#183047" text-anchor="start">Right</text>
  <rect x="98.5" y="95.0" width="13.0" height="13.0" rx="3" fill="#c2413b"/>
  <text x="118.5" y="106.0" font-size="13" font-weight="400" fill="#183047" text-anchor="start">Wrong</text>
  <rect x="165.0" y="95.0" width="13.0" height="13.0" rx="3" fill="#7f9bb3"/>
  <text x="185.0" y="106.0" font-size="13" font-weight="400" fill="#183047" text-anchor="start">Sent to a person, correctly</text>
  <rect x="374.5" y="95.0" width="13.0" height="13.0" rx="3" fill="#dfe6ec"/>
  <text x="394.5" y="106.0" font-size="13" font-weight="400" fill="#183047" text-anchor="start">Sent to a person, but answerable</text>
  <text x="32.0" y="144.0" font-size="13" font-weight="700" fill="#5c7084" text-anchor="start">Held-out split, 40 cases</text>
  <text x="32.0" y="173.0" font-size="15" font-weight="700" fill="#183047" text-anchor="start">Rules only</text>
  <text x="32.0" y="191.0" font-size="12" font-weight="400" fill="#5c7084" text-anchor="start">1 right, 0 wrong, of 40</text>
  <rect x="250.0" y="158.0" width="11.9" height="32.0" rx="0" fill="#1f7a4d"/>
  <rect x="261.9" y="158.0" width="0.0" height="32.0" rx="0" fill="#c2413b"/>
  <rect x="261.9" y="158.0" width="71.7" height="32.0" rx="0" fill="#7f9bb3"/>
  <text x="297.8" y="179.0" font-size="13" font-weight="700" fill="#ffffff" text-anchor="middle">6</text>
  <rect x="333.6" y="158.0" width="394.4" height="32.0" rx="0" fill="#dfe6ec"/>
  <text x="530.8" y="179.0" font-size="13" font-weight="700" fill="#183047" text-anchor="middle">33</text>
  <text x="32.0" y="223.0" font-size="15" font-weight="700" fill="#183047" text-anchor="start">Rules, then DeepSeek</text>
  <text x="32.0" y="241.0" font-size="12" font-weight="400" fill="#5c7084" text-anchor="start">21 right, 2 wrong, of 40</text>
  <rect x="250.0" y="208.0" width="250.9" height="32.0" rx="0" fill="#1f7a4d"/>
  <text x="375.5" y="229.0" font-size="13" font-weight="700" fill="#ffffff" text-anchor="middle">21</text>
  <rect x="500.9" y="208.0" width="23.9" height="32.0" rx="0" fill="#c2413b"/>
  <rect x="524.9" y="208.0" width="71.7" height="32.0" rx="0" fill="#7f9bb3"/>
  <text x="560.7" y="229.0" font-size="13" font-weight="700" fill="#ffffff" text-anchor="middle">6</text>
  <rect x="596.6" y="208.0" width="131.4" height="32.0" rx="0" fill="#dfe6ec"/>
  <text x="662.3" y="229.0" font-size="13" font-weight="700" fill="#183047" text-anchor="middle">11</text>
  <text x="32.0" y="280.0" font-size="13" font-weight="700" fill="#5c7084" text-anchor="start">All cases, 178 cases</text>
  <text x="32.0" y="309.0" font-size="15" font-weight="700" fill="#183047" text-anchor="start">Rules only</text>
  <text x="32.0" y="327.0" font-size="12" font-weight="400" fill="#5c7084" text-anchor="start">2 right, 0 wrong, of 178</text>
  <rect x="250.0" y="294.0" width="5.4" height="32.0" rx="0" fill="#1f7a4d"/>
  <rect x="255.4" y="294.0" width="0.0" height="32.0" rx="0" fill="#c2413b"/>
  <rect x="255.4" y="294.0" width="137.0" height="32.0" rx="0" fill="#7f9bb3"/>
  <text x="323.8" y="315.0" font-size="13" font-weight="700" fill="#ffffff" text-anchor="middle">51</text>
  <rect x="392.3" y="294.0" width="335.7" height="32.0" rx="0" fill="#dfe6ec"/>
  <text x="560.2" y="315.0" font-size="13" font-weight="700" fill="#183047" text-anchor="middle">125</text>
  <text x="32.0" y="359.0" font-size="15" font-weight="700" fill="#183047" text-anchor="start">Shadow ranker</text>
  <text x="32.0" y="377.0" font-size="12" font-weight="400" fill="#5c7084" text-anchor="start">0 right, 0 wrong, of 138</text>
  <rect x="250.0" y="344.0" width="0.0" height="32.0" rx="0" fill="#1f7a4d"/>
  <rect x="250.0" y="344.0" width="0.0" height="32.0" rx="0" fill="#c2413b"/>
  <rect x="250.0" y="344.0" width="138.6" height="32.0" rx="0" fill="#7f9bb3"/>
  <text x="319.3" y="365.0" font-size="13" font-weight="700" fill="#ffffff" text-anchor="middle">40</text>
  <rect x="388.6" y="344.0" width="339.4" height="32.0" rx="0" fill="#dfe6ec"/>
  <text x="558.3" y="365.0" font-size="13" font-weight="700" fill="#183047" text-anchor="middle">98</text>
  <text x="32.0" y="409.0" font-size="15" font-weight="700" fill="#183047" text-anchor="start">Rules, then DeepSeek</text>
  <text x="32.0" y="427.0" font-size="12" font-weight="400" fill="#5c7084" text-anchor="start">61 right, 13 wrong, of 178</text>
  <rect x="250.0" y="394.0" width="163.8" height="32.0" rx="0" fill="#1f7a4d"/>
  <text x="331.9" y="415.0" font-size="13" font-weight="700" fill="#ffffff" text-anchor="middle">61</text>
  <rect x="413.8" y="394.0" width="34.9" height="32.0" rx="0" fill="#c2413b"/>
  <text x="431.3" y="415.0" font-size="13" font-weight="700" fill="#ffffff" text-anchor="middle">13</text>
  <rect x="448.7" y="394.0" width="131.6" height="32.0" rx="0" fill="#7f9bb3"/>
  <text x="514.5" y="415.0" font-size="13" font-weight="700" fill="#ffffff" text-anchor="middle">49</text>
  <rect x="580.3" y="394.0" width="147.7" height="32.0" rx="0" fill="#dfe6ec"/>
  <text x="654.2" y="415.0" font-size="13" font-weight="700" fill="#183047" text-anchor="middle">55</text>
  <text x="32.0" y="462.0" font-size="12" font-weight="400" fill="#5c7084" text-anchor="start">The shadow ranker is scored on 138 cases: the 40 validation cases chose its threshold.</text>
  <text x="32.0" y="490.0" font-size="12" font-weight="400" fill="#5c7084" text-anchor="start">Evaluation v2, 2026-09-23: 178 synthetic cases written by AI agents; pre-registered, run once.</text>
  <text x="32.0" y="507.0" font-size="12" font-weight="400" fill="#5c7084" text-anchor="start">Synthetic results, not real-world accuracy. Source: github.com/RonaldoJ24/reconcile</text>
</svg>
